<svg width="280" height="280" viewBox="0 0 280 280" fill="none" xmlns="http://www.w3.org/2000/svg">
<path d="M86.9146 69.9489C86.9146 69.9489 118.756 94.1114 167.163 48.9316C210.153 8.80755 245.255 72.114 245.5 102.43C245.819 141.703 202.51 173.125 223.527 198.92C244.545 224.714 181.847 267.309 148.056 230.446C106.021 184.59 94.6333 221.848 70.6735 221.848C53.4775 221.848 18.172 179.12 42.0134 147.331C62.0754 120.582 51.134 111.704 45.8354 102.43C38.1924 89.0557 56.3438 52.7529 86.9146 69.9489Z" fill="#DEE9FF"/>
<path fill-rule="evenodd" clip-rule="evenodd" d="M83.1011 198.053L77.2601 198.834C74.1207 199.254 71.218 197.172 70.7768 194.183L54.7989 85.9531C54.3577 82.9644 56.545 80.2011 59.6845 79.7811L171.952 64.7604C175.091 64.3404 177.994 66.4227 178.435 69.4114C178.435 69.4114 179.457 76.3316 179.808 78.712" fill="white"/>
<path fill-rule="evenodd" clip-rule="evenodd" d="M86.727 192.027L81.4232 192.745C78.5724 193.131 75.9404 191.244 75.5443 188.53L61.2005 90.2687C60.8044 87.5553 62.7943 85.0429 65.645 84.6572L167.589 70.8633C170.44 70.4775 173.072 72.3645 173.468 75.0779L174.701 83.5219C174.767 83.9788 179.171 114.307 187.911 174.507C188.35 177.53 186.161 180.323 183.021 180.745C182.987 180.75 182.953 180.754 182.92 180.758L86.727 192.027Z" fill="#699CFF"/>
<path d="M83.1011 198.053L77.2601 198.834C74.1207 199.254 71.218 197.172 70.7768 194.183L54.7989 85.9531C54.3577 82.9644 56.545 80.2011 59.6845 79.7811L171.952 64.7604C175.091 64.3404 177.994 66.4227 178.435 69.4114C178.435 69.4114 179.457 76.3316 179.808 78.712" stroke="#1F64E7" stroke-width="2.5" stroke-linecap="round"/>
<path d="M181.004 85.0112L181.721 89.2742" stroke="#1F64E7" stroke-width="2.5" stroke-linecap="round"/>
<path d="M105.196 86.6519L221.403 98.2794C222.914 98.4306 224.004 99.777 223.837 101.287L211.515 212.9C211.348 214.409 209.988 215.51 208.477 215.359L92.2696 203.732C90.7584 203.581 89.6684 202.234 89.8351 200.725L102.158 89.1115C102.324 87.6019 103.685 86.5007 105.196 86.6519Z" fill="#DEE9FF" stroke="#1F64E7" stroke-width="2.5"/>
<path fill-rule="evenodd" clip-rule="evenodd" d="M112.518 101.507C112.7 99.8597 114.184 98.6584 115.833 98.8233L208.34 108.079C209.989 108.244 211.178 109.713 210.996 111.36L202.804 185.559C202.622 187.206 201.138 188.407 199.49 188.242L106.982 178.986C105.334 178.821 104.145 177.352 104.327 175.705L112.518 101.507Z" fill="white"/>
<path fill-rule="evenodd" clip-rule="evenodd" d="M116.771 158.099L132.145 148.228C133.751 147.196 135.851 147.427 137.171 148.779L148.836 160.735C149.188 161.096 149.759 161.134 150.164 160.822L174.097 142.36C175.93 140.947 178.561 141.353 179.848 143.248L195.268 165.953L197.325 169.221L196.307 180.695C196.257 181.256 195.754 181.67 195.194 181.61L112.582 172.872C112.04 172.815 111.648 172.335 111.701 171.793L112.819 160.233L116.771 158.099Z" fill="#699CFF"/>
<path d="M115.696 100.066L208.203 109.322C209.165 109.418 209.858 110.275 209.752 111.236L201.56 185.435C201.454 186.395 200.589 187.096 199.627 187L107.12 177.744C106.158 177.647 105.464 176.791 105.57 175.83L113.762 101.631C113.868 100.67 114.734 99.9696 115.696 100.066Z" stroke="#1F64E7" stroke-width="2.5"/>
<ellipse cx="8.60603" cy="8.20167" rx="8.60603" ry="8.20167" transform="matrix(0.995031 0.099561 -0.109738 0.993961 126.747 116.4)" fill="#699CFF" stroke="#1F64E7" stroke-width="2.5"/>
<path d="M113.885 160.213C119.534 156.499 130.832 149.071 130.832 149.071C133.176 147.566 136.323 147.91 138.247 149.883L148.542 160.434C149.056 160.96 149.91 161.018 150.497 160.565L172.511 143.584C174.974 141.684 178.588 142.045 180.584 144.39C180.713 144.541 180.834 144.699 180.945 144.863C180.945 144.863 193.815 164.305 196.823 168.848" stroke="#1F64E7" stroke-width="2.5" stroke-linecap="round"/>
</svg>
